<svg width="240" height="200" viewBox="0 0 240 200" fill="none" xmlns="http://www.w3.org/2000/svg">
<mask id="path-1-inside-1_715_41886" fill="white">
<path fill-rule="evenodd" clip-rule="evenodd" d="M209.006 81.6079C210.202 76.7489 210.837 71.6695 210.837 66.4422C210.837 31.4701 182.439 3.11963 147.408 3.11963C122.421 3.11963 100.809 17.5434 90.4701 38.5057C79.844 30.4892 66.6108 25.7348 52.2653 25.7348C22.6356 25.7348 -2.24905 46.0172 -9.21796 73.4336C-38.686 78.8933 -61 104.691 -61 135.691C-61 170.663 -32.6021 199.013 2.42859 199.013C2.44957 199.013 2.47056 199.013 2.49154 199.013H175.935C175.956 199.013 175.977 199.013 175.997 199.013C176.018 199.013 176.039 199.013 176.06 199.013H179.123V198.938C212.702 197.312 239.426 169.617 239.426 135.691C239.426 112.79 227.249 92.7286 209.006 81.6079Z"/>
</mask>
<path fill-rule="evenodd" clip-rule="evenodd" d="M209.006 81.6079C210.202 76.7489 210.837 71.6695 210.837 66.4422C210.837 31.4701 182.439 3.11963 147.408 3.11963C122.421 3.11963 100.809 17.5434 90.4701 38.5057C79.844 30.4892 66.6108 25.7348 52.2653 25.7348C22.6356 25.7348 -2.24905 46.0172 -9.21796 73.4336C-38.686 78.8933 -61 104.691 -61 135.691C-61 170.663 -32.6021 199.013 2.42859 199.013C2.44957 199.013 2.47056 199.013 2.49154 199.013H175.935C175.956 199.013 175.977 199.013 175.997 199.013C176.018 199.013 176.039 199.013 176.06 199.013H179.123V198.938C212.702 197.312 239.426 169.617 239.426 135.691C239.426 112.79 227.249 92.7286 209.006 81.6079Z" fill="white"/>
<path d="M209.006 81.6079L207.064 81.1297L206.714 82.5528L207.965 83.3156L209.006 81.6079ZM90.4701 38.5057L89.2656 40.1023L91.1948 41.5578L92.2638 39.3904L90.4701 38.5057ZM-9.21796 73.4336L-8.85361 75.4001L-7.59495 75.1669L-7.2796 73.9263L-9.21796 73.4336ZM179.123 199.013V201.013H181.123V199.013H179.123ZM179.123 198.938L179.026 196.94L177.123 197.033V198.938H179.123ZM208.837 66.4422C208.837 71.5071 208.222 76.4261 207.064 81.1297L210.948 82.086C212.182 77.0718 212.837 71.8319 212.837 66.4422H208.837ZM147.408 5.11963C181.337 5.11963 208.837 32.5778 208.837 66.4422H212.837C212.837 30.3624 183.54 1.11963 147.408 1.11963V5.11963ZM92.2638 39.3904C102.279 19.086 123.21 5.11963 147.408 5.11963V1.11963C121.632 1.11963 99.3401 16.0009 88.6764 37.621L92.2638 39.3904ZM52.2653 27.7348C66.1616 27.7348 78.9747 32.3387 89.2656 40.1023L91.6746 36.9091C80.7133 28.6397 67.06 23.7348 52.2653 23.7348V27.7348ZM-7.2796 73.9263C-0.531128 47.3772 23.5702 27.7348 52.2653 27.7348V23.7348C21.7009 23.7348 -3.96696 44.6573 -11.1563 72.9409L-7.2796 73.9263ZM-59 135.691C-59 105.674 -37.3933 80.6878 -8.85361 75.4001L-9.5823 71.4671C-39.9786 77.0987 -63 103.707 -63 135.691H-59ZM2.42859 197.013C-31.5006 197.013 -59 169.555 -59 135.691H-63C-63 171.771 -33.7035 201.013 2.42859 201.013V197.013ZM2.49154 197.013C2.4802 197.013 2.46898 197.013 2.45861 197.013C2.448 197.013 2.43823 197.013 2.42859 197.013V201.013C2.43993 201.013 2.45115 201.013 2.46152 201.013C2.47213 201.013 2.4819 201.013 2.49154 201.013V197.013ZM175.935 197.013H2.49154V201.013H175.935V197.013ZM175.997 197.013C175.988 197.013 175.978 197.013 175.967 197.013C175.957 197.013 175.946 197.013 175.935 197.013V201.013C175.944 201.013 175.954 201.013 175.965 201.013C175.975 201.013 175.986 201.013 175.997 201.013V197.013ZM176.06 197.013C176.049 197.013 176.038 197.013 176.028 197.013C176.017 197.013 176.007 197.013 175.997 197.013V201.013C176.009 201.013 176.02 201.013 176.03 201.013C176.041 201.013 176.051 201.013 176.06 201.013V197.013ZM179.123 197.013H176.06V201.013H179.123V197.013ZM177.123 198.938V199.013H181.123V198.938H177.123ZM237.426 135.691C237.426 168.542 211.547 195.365 179.026 196.94L179.219 200.936C213.856 199.258 241.426 170.692 241.426 135.691H237.426ZM207.965 83.3156C225.638 94.0889 237.426 113.517 237.426 135.691H241.426C241.426 112.063 228.86 91.3682 210.047 79.9001L207.965 83.3156Z" fill="black" fill-opacity="0.6" mask="url(#path-1-inside-1_715_41886)"/>
</svg>
