<svg width="259" height="200" viewBox="0 0 259 200" fill="none" xmlns="http://www.w3.org/2000/svg">
<mask id="path-1-inside-1_715_41900" fill="white">
<path fill-rule="evenodd" clip-rule="evenodd" d="M270.006 81.6079C271.202 76.7489 271.837 71.6695 271.837 66.4422C271.837 31.4701 243.439 3.11963 208.408 3.11963C183.421 3.11963 161.809 17.5434 151.47 38.5057C140.844 30.4892 127.611 25.7348 113.265 25.7348C83.6356 25.7348 58.751 46.0172 51.782 73.4336C22.314 78.8933 0 104.691 0 135.691C0 170.663 28.3979 199.013 63.4286 199.013C63.4496 199.013 63.4706 199.013 63.4915 199.013H236.935C236.956 199.013 236.977 199.013 236.997 199.013C237.018 199.013 237.039 199.013 237.06 199.013H240.123V198.938C273.702 197.312 300.426 169.617 300.426 135.691C300.426 112.79 288.249 92.7286 270.006 81.6079Z"/>
</mask>
<path fill-rule="evenodd" clip-rule="evenodd" d="M270.006 81.6079C271.202 76.7489 271.837 71.6695 271.837 66.4422C271.837 31.4701 243.439 3.11963 208.408 3.11963C183.421 3.11963 161.809 17.5434 151.47 38.5057C140.844 30.4892 127.611 25.7348 113.265 25.7348C83.6356 25.7348 58.751 46.0172 51.782 73.4336C22.314 78.8933 0 104.691 0 135.691C0 170.663 28.3979 199.013 63.4286 199.013C63.4496 199.013 63.4706 199.013 63.4915 199.013H236.935C236.956 199.013 236.977 199.013 236.997 199.013C237.018 199.013 237.039 199.013 237.06 199.013H240.123V198.938C273.702 197.312 300.426 169.617 300.426 135.691C300.426 112.79 288.249 92.7286 270.006 81.6079Z" fill="white"/>
<path d="M270.006 81.6079L268.064 81.1297L267.714 82.5528L268.965 83.3156L270.006 81.6079ZM151.47 38.5057L150.266 40.1023L152.195 41.5578L153.264 39.3904L151.47 38.5057ZM51.782 73.4336L52.1464 75.4001L53.4051 75.1669L53.7204 73.9263L51.782 73.4336ZM240.123 199.013V201.013H242.123V199.013H240.123ZM240.123 198.938L240.026 196.94L238.123 197.033V198.938H240.123ZM269.837 66.4422C269.837 71.5071 269.222 76.4261 268.064 81.1297L271.948 82.086C273.182 77.0718 273.837 71.8319 273.837 66.4422H269.837ZM208.408 5.11963C242.337 5.11963 269.837 32.5778 269.837 66.4422H273.837C273.837 30.3624 244.54 1.11963 208.408 1.11963V5.11963ZM153.264 39.3904C163.279 19.086 184.21 5.11963 208.408 5.11963V1.11963C182.632 1.11963 160.34 16.0009 149.676 37.621L153.264 39.3904ZM113.265 27.7348C127.162 27.7348 139.975 32.3387 150.266 40.1023L152.675 36.9091C141.713 28.6397 128.06 23.7348 113.265 23.7348V27.7348ZM53.7204 73.9263C60.4689 47.3772 84.5702 27.7348 113.265 27.7348V23.7348C82.7009 23.7348 57.033 44.6573 49.8437 72.9409L53.7204 73.9263ZM2 135.691C2 105.674 23.6067 80.6878 52.1464 75.4001L51.4177 71.4671C21.0214 77.0987 -2 103.707 -2 135.691H2ZM63.4286 197.013C29.4994 197.013 2 169.555 2 135.691H-2C-2 171.771 27.2965 201.013 63.4286 201.013V197.013ZM63.4915 197.013C63.4802 197.013 63.469 197.013 63.4586 197.013C63.448 197.013 63.4382 197.013 63.4286 197.013V201.013C63.4399 201.013 63.4511 201.013 63.4615 201.013C63.4721 201.013 63.4819 201.013 63.4915 201.013V197.013ZM236.935 197.013H63.4915V201.013H236.935V197.013ZM236.997 197.013C236.988 197.013 236.978 197.013 236.967 197.013C236.957 197.013 236.946 197.013 236.935 197.013V201.013C236.944 201.013 236.954 201.013 236.965 201.013C236.975 201.013 236.986 201.013 236.997 201.013V197.013ZM237.06 197.013C237.049 197.013 237.038 197.013 237.028 197.013C237.017 197.013 237.007 197.013 236.997 197.013V201.013C237.009 201.013 237.02 201.013 237.03 201.013C237.041 201.013 237.051 201.013 237.06 201.013V197.013ZM240.123 197.013H237.06V201.013H240.123V197.013ZM238.123 198.938V199.013H242.123V198.938H238.123ZM298.426 135.691C298.426 168.542 272.547 195.365 240.026 196.94L240.219 200.936C274.856 199.258 302.426 170.692 302.426 135.691H298.426ZM268.965 83.3156C286.638 94.0889 298.426 113.517 298.426 135.691H302.426C302.426 112.063 289.86 91.3682 271.047 79.9001L268.965 83.3156Z" fill="black" fill-opacity="0.6" mask="url(#path-1-inside-1_715_41900)"/>
</svg>
