<svg width="212" height="61" viewBox="0 0 212 61" fill="none" xmlns="http://www.w3.org/2000/svg">
<path d="M0 4.01316H22.0296C29.0348 4.01316 34.5038 5.43114 38.4365 8.26711C42.3693 11.1031 44.3356 15.3838 44.3356 21.1092C44.3356 28.4399 40.618 33.657 33.1826 36.7605L47.6539 60.1974H35.9478L23.1357 38.7671H22.6748H10.3235V60.1974H0V4.01316ZM20.647 31.1421C25.0713 31.1421 28.3588 30.286 30.5096 28.5737C32.7217 26.8079 33.8278 24.4 33.8278 21.35C33.8278 18.193 32.7525 15.7851 30.6017 14.1263C28.451 12.414 25.1942 11.5579 20.8313 11.5579H10.3235V31.1421H20.647Z" fill="#3F51B5"/>
<path d="M76.7276 19.825C82.5038 19.825 86.8667 21.457 89.8163 24.7211C92.7658 27.9851 94.2406 32.4531 94.2406 38.125V60.1974H84.6545V38.9276C84.6545 34.8075 83.825 31.7842 82.1658 29.8579C80.5067 27.9316 77.9258 26.9684 74.4232 26.9684C70.1832 26.9684 66.7421 28.4667 64.0997 31.4632V60.1974H54.4215V0H64.0997V23.7579C65.8818 22.4737 67.756 21.5105 69.7224 20.8684C71.7502 20.1728 74.0853 19.825 76.7276 19.825Z" fill="#3F51B5"/>
<path d="M105.108 4.01316H114.694V12.8421H105.108V4.01316ZM105.108 20.5474H114.694V60.1974H105.108V20.5474Z" fill="#3F51B5"/>
<path d="M137.888 52.9737H161.761V60.1974H122.31L146.368 27.7711H124.062V20.5474H161.945L137.888 52.9737Z" fill="#3F51B5"/>
<path d="M189.036 61C184.305 61 180.188 60.0904 176.685 58.2711C173.244 56.3983 170.602 53.9101 168.758 50.8066C166.976 47.6496 166.085 44.1715 166.085 40.3724C166.085 36.5732 166.976 33.1219 168.758 30.0184C170.602 26.8614 173.244 24.3732 176.685 22.554C180.188 20.6811 184.305 19.7447 189.036 19.7447C193.707 19.7447 197.762 20.6811 201.203 22.554C204.706 24.3732 207.379 26.8614 209.223 30.0184C211.066 33.1219 211.988 36.5732 211.988 40.3724C211.988 44.1715 211.066 47.6496 209.223 50.8066C207.379 53.9101 204.706 56.3983 201.203 58.2711C197.762 60.0904 193.707 61 189.036 61ZM189.036 53.8566C193.215 53.8566 196.441 52.6526 198.715 50.2447C200.988 47.8368 202.125 44.5461 202.125 40.3724C202.125 36.1987 200.988 32.9079 198.715 30.5C196.441 28.0921 193.215 26.8882 189.036 26.8882C184.858 26.8882 181.632 28.0921 179.358 30.5C177.085 32.9079 175.948 36.1987 175.948 40.3724C175.948 44.5461 177.085 47.8368 179.358 50.2447C181.632 52.6526 184.858 53.8566 189.036 53.8566Z" fill="#3F51B5"/>
</svg>
